<mxfile host="app.diagrams.net" agent="Mozilla/5.0 (Macintosh; Intel Mac OS X 10_15_7) AppleWebKit/537.36 (KHTML, like Gecko) Chrome/134.0.0.0 Safari/537.36" version="26.2.14">
  <diagram name="第 1 页" id="0lV1aOoMydb-EMo5RVfu">
    <mxGraphModel dx="925" dy="626" grid="1" gridSize="10" guides="1" tooltips="1" connect="1" arrows="1" fold="1" page="1" pageScale="1" pageWidth="827" pageHeight="1169" math="0" shadow="0">
      <root>
        <mxCell id="0" />
        <mxCell id="1" parent="0" />
        <mxCell id="we8GS6kr-gi9_ZppwQF3-3" value="RRID" style="edgeStyle=orthogonalEdgeStyle;rounded=0;orthogonalLoop=1;jettySize=auto;html=1;entryX=0.5;entryY=0;entryDx=0;entryDy=0;" edge="1" parent="1" source="we8GS6kr-gi9_ZppwQF3-1" target="we8GS6kr-gi9_ZppwQF3-2">
          <mxGeometry x="-0.2" y="-20" relative="1" as="geometry">
            <mxPoint as="offset" />
          </mxGeometry>
        </mxCell>
        <mxCell id="we8GS6kr-gi9_ZppwQF3-1" value="事务发起" style="rounded=1;whiteSpace=wrap;html=1;fillColor=#e1d5e7;strokeColor=#9673a6;" vertex="1" parent="1">
          <mxGeometry x="330" y="120" width="120" height="40" as="geometry" />
        </mxCell>
        <mxCell id="we8GS6kr-gi9_ZppwQF3-36" style="edgeStyle=orthogonalEdgeStyle;rounded=0;orthogonalLoop=1;jettySize=auto;html=1;entryX=0.5;entryY=0;entryDx=0;entryDy=0;" edge="1" parent="1" source="we8GS6kr-gi9_ZppwQF3-2" target="we8GS6kr-gi9_ZppwQF3-35">
          <mxGeometry relative="1" as="geometry" />
        </mxCell>
        <mxCell id="we8GS6kr-gi9_ZppwQF3-2" value="i=0" style="rounded=0;whiteSpace=wrap;html=1;fillColor=#f5f5f5;fontColor=#333333;strokeColor=#666666;" vertex="1" parent="1">
          <mxGeometry x="330" y="200" width="120" height="40" as="geometry" />
        </mxCell>
        <mxCell id="we8GS6kr-gi9_ZppwQF3-50" style="edgeStyle=orthogonalEdgeStyle;rounded=0;orthogonalLoop=1;jettySize=auto;html=1;entryX=0.5;entryY=0;entryDx=0;entryDy=0;" edge="1" parent="1" source="we8GS6kr-gi9_ZppwQF3-35" target="we8GS6kr-gi9_ZppwQF3-47">
          <mxGeometry relative="1" as="geometry" />
        </mxCell>
        <mxCell id="we8GS6kr-gi9_ZppwQF3-35" value="检查优先级为i的表项" style="rounded=0;whiteSpace=wrap;html=1;fillColor=#f5f5f5;fontColor=#333333;strokeColor=#666666;" vertex="1" parent="1">
          <mxGeometry x="330" y="280" width="120" height="40" as="geometry" />
        </mxCell>
        <mxCell id="we8GS6kr-gi9_ZppwQF3-45" style="edgeStyle=orthogonalEdgeStyle;rounded=0;orthogonalLoop=1;jettySize=auto;html=1;entryX=0;entryY=0.5;entryDx=0;entryDy=0;" edge="1" parent="1" source="we8GS6kr-gi9_ZppwQF3-42" target="we8GS6kr-gi9_ZppwQF3-35">
          <mxGeometry relative="1" as="geometry">
            <Array as="points">
              <mxPoint x="210" y="300" />
            </Array>
          </mxGeometry>
        </mxCell>
        <mxCell id="we8GS6kr-gi9_ZppwQF3-42" value="i=i+1" style="rounded=0;whiteSpace=wrap;html=1;fillColor=#f5f5f5;fontColor=#333333;strokeColor=#666666;" vertex="1" parent="1">
          <mxGeometry x="150" y="365" width="120" height="40" as="geometry" />
        </mxCell>
        <mxCell id="we8GS6kr-gi9_ZppwQF3-52" style="edgeStyle=orthogonalEdgeStyle;rounded=0;orthogonalLoop=1;jettySize=auto;html=1;entryX=0.5;entryY=0;entryDx=0;entryDy=0;" edge="1" parent="1" source="we8GS6kr-gi9_ZppwQF3-47" target="we8GS6kr-gi9_ZppwQF3-51">
          <mxGeometry relative="1" as="geometry" />
        </mxCell>
        <mxCell id="we8GS6kr-gi9_ZppwQF3-76" value="" style="edgeStyle=orthogonalEdgeStyle;rounded=0;orthogonalLoop=1;jettySize=auto;html=1;" edge="1" parent="1" source="we8GS6kr-gi9_ZppwQF3-47" target="we8GS6kr-gi9_ZppwQF3-75">
          <mxGeometry relative="1" as="geometry" />
        </mxCell>
        <mxCell id="we8GS6kr-gi9_ZppwQF3-77" value="是" style="edgeLabel;html=1;align=center;verticalAlign=middle;resizable=0;points=[];" vertex="1" connectable="0" parent="we8GS6kr-gi9_ZppwQF3-76">
          <mxGeometry x="0.0606" y="-2" relative="1" as="geometry">
            <mxPoint x="-2" y="-17" as="offset" />
          </mxGeometry>
        </mxCell>
        <mxCell id="we8GS6kr-gi9_ZppwQF3-47" value="是否匹配？" style="rhombus;whiteSpace=wrap;html=1;fillColor=#ffe6cc;strokeColor=#d79b00;" vertex="1" parent="1">
          <mxGeometry x="330" y="360" width="120" height="50" as="geometry" />
        </mxCell>
        <mxCell id="we8GS6kr-gi9_ZppwQF3-53" style="edgeStyle=orthogonalEdgeStyle;rounded=0;orthogonalLoop=1;jettySize=auto;html=1;entryX=0.5;entryY=1;entryDx=0;entryDy=0;" edge="1" parent="1" source="we8GS6kr-gi9_ZppwQF3-51" target="we8GS6kr-gi9_ZppwQF3-42">
          <mxGeometry relative="1" as="geometry" />
        </mxCell>
        <mxCell id="we8GS6kr-gi9_ZppwQF3-62" value="是" style="edgeLabel;html=1;align=center;verticalAlign=middle;resizable=0;points=[];" vertex="1" connectable="0" parent="we8GS6kr-gi9_ZppwQF3-53">
          <mxGeometry x="-0.7374" relative="1" as="geometry">
            <mxPoint y="-15" as="offset" />
          </mxGeometry>
        </mxCell>
        <mxCell id="we8GS6kr-gi9_ZppwQF3-64" style="edgeStyle=orthogonalEdgeStyle;rounded=0;orthogonalLoop=1;jettySize=auto;html=1;entryX=0.5;entryY=0;entryDx=0;entryDy=0;" edge="1" parent="1" source="we8GS6kr-gi9_ZppwQF3-51" target="we8GS6kr-gi9_ZppwQF3-63">
          <mxGeometry relative="1" as="geometry" />
        </mxCell>
        <mxCell id="we8GS6kr-gi9_ZppwQF3-51" value="i&amp;lt;=优先级总数" style="rhombus;whiteSpace=wrap;html=1;fillColor=#ffe6cc;strokeColor=#d79b00;" vertex="1" parent="1">
          <mxGeometry x="330" y="440" width="120" height="50" as="geometry" />
        </mxCell>
        <mxCell id="we8GS6kr-gi9_ZppwQF3-57" style="edgeStyle=orthogonalEdgeStyle;rounded=0;orthogonalLoop=1;jettySize=auto;html=1;entryX=0;entryY=0.5;entryDx=0;entryDy=0;" edge="1" parent="1" source="we8GS6kr-gi9_ZppwQF3-54" target="we8GS6kr-gi9_ZppwQF3-56">
          <mxGeometry relative="1" as="geometry" />
        </mxCell>
        <mxCell id="we8GS6kr-gi9_ZppwQF3-60" style="edgeStyle=orthogonalEdgeStyle;rounded=0;orthogonalLoop=1;jettySize=auto;html=1;entryX=0.5;entryY=0;entryDx=0;entryDy=0;" edge="1" parent="1" source="we8GS6kr-gi9_ZppwQF3-54" target="we8GS6kr-gi9_ZppwQF3-59">
          <mxGeometry relative="1" as="geometry" />
        </mxCell>
        <mxCell id="we8GS6kr-gi9_ZppwQF3-61" value="是" style="edgeLabel;html=1;align=center;verticalAlign=middle;resizable=0;points=[];" vertex="1" connectable="0" parent="we8GS6kr-gi9_ZppwQF3-60">
          <mxGeometry x="-0.1864" relative="1" as="geometry">
            <mxPoint x="-10" as="offset" />
          </mxGeometry>
        </mxCell>
        <mxCell id="we8GS6kr-gi9_ZppwQF3-54" value="是否有权限？" style="rhombus;whiteSpace=wrap;html=1;fillColor=#ffe6cc;strokeColor=#d79b00;" vertex="1" parent="1">
          <mxGeometry x="510" y="440" width="120" height="50" as="geometry" />
        </mxCell>
        <mxCell id="we8GS6kr-gi9_ZppwQF3-56" value="非法访问&lt;div&gt;（无权限）&lt;/div&gt;" style="rounded=1;whiteSpace=wrap;html=1;fillColor=#f8cecc;strokeColor=#b85450;" vertex="1" parent="1">
          <mxGeometry x="690" y="445" width="120" height="40" as="geometry" />
        </mxCell>
        <mxCell id="we8GS6kr-gi9_ZppwQF3-59" value="合法访问" style="rounded=1;whiteSpace=wrap;html=1;fillColor=#dae8fc;strokeColor=#6c8ebf;" vertex="1" parent="1">
          <mxGeometry x="510" y="530" width="120" height="40" as="geometry" />
        </mxCell>
        <mxCell id="we8GS6kr-gi9_ZppwQF3-66" style="edgeStyle=orthogonalEdgeStyle;rounded=0;orthogonalLoop=1;jettySize=auto;html=1;entryX=0.5;entryY=0;entryDx=0;entryDy=0;" edge="1" parent="1" source="we8GS6kr-gi9_ZppwQF3-63" target="we8GS6kr-gi9_ZppwQF3-65">
          <mxGeometry relative="1" as="geometry" />
        </mxCell>
        <mxCell id="we8GS6kr-gi9_ZppwQF3-63" value="检查下一个&lt;div&gt;非优先级表项&lt;/div&gt;" style="rounded=0;whiteSpace=wrap;html=1;fillColor=#f5f5f5;fontColor=#333333;strokeColor=#666666;" vertex="1" parent="1">
          <mxGeometry x="330" y="520" width="120" height="40" as="geometry" />
        </mxCell>
        <mxCell id="we8GS6kr-gi9_ZppwQF3-70" value="" style="edgeStyle=orthogonalEdgeStyle;rounded=0;orthogonalLoop=1;jettySize=auto;html=1;" edge="1" parent="1" source="we8GS6kr-gi9_ZppwQF3-65" target="we8GS6kr-gi9_ZppwQF3-69">
          <mxGeometry relative="1" as="geometry" />
        </mxCell>
        <mxCell id="we8GS6kr-gi9_ZppwQF3-81" style="edgeStyle=orthogonalEdgeStyle;rounded=0;orthogonalLoop=1;jettySize=auto;html=1;entryX=0;entryY=0.5;entryDx=0;entryDy=0;" edge="1" parent="1" source="we8GS6kr-gi9_ZppwQF3-65" target="we8GS6kr-gi9_ZppwQF3-54">
          <mxGeometry relative="1" as="geometry" />
        </mxCell>
        <mxCell id="we8GS6kr-gi9_ZppwQF3-82" value="是" style="edgeLabel;html=1;align=center;verticalAlign=middle;resizable=0;points=[];" vertex="1" connectable="0" parent="we8GS6kr-gi9_ZppwQF3-81">
          <mxGeometry x="-0.8442" y="1" relative="1" as="geometry">
            <mxPoint y="-14" as="offset" />
          </mxGeometry>
        </mxCell>
        <mxCell id="we8GS6kr-gi9_ZppwQF3-65" value="是否匹配？" style="rhombus;whiteSpace=wrap;html=1;fillColor=#ffe6cc;strokeColor=#d79b00;" vertex="1" parent="1">
          <mxGeometry x="330" y="590" width="120" height="50" as="geometry" />
        </mxCell>
        <mxCell id="we8GS6kr-gi9_ZppwQF3-71" style="edgeStyle=orthogonalEdgeStyle;rounded=0;orthogonalLoop=1;jettySize=auto;html=1;entryX=0;entryY=0.5;entryDx=0;entryDy=0;" edge="1" parent="1" source="we8GS6kr-gi9_ZppwQF3-69" target="we8GS6kr-gi9_ZppwQF3-63">
          <mxGeometry relative="1" as="geometry">
            <Array as="points">
              <mxPoint x="280" y="700" />
              <mxPoint x="280" y="540" />
            </Array>
          </mxGeometry>
        </mxCell>
        <mxCell id="we8GS6kr-gi9_ZppwQF3-73" style="edgeStyle=orthogonalEdgeStyle;rounded=0;orthogonalLoop=1;jettySize=auto;html=1;entryX=0;entryY=0.5;entryDx=0;entryDy=0;" edge="1" parent="1" source="we8GS6kr-gi9_ZppwQF3-69" target="we8GS6kr-gi9_ZppwQF3-72">
          <mxGeometry relative="1" as="geometry" />
        </mxCell>
        <mxCell id="we8GS6kr-gi9_ZppwQF3-74" value="是" style="edgeLabel;html=1;align=center;verticalAlign=middle;resizable=0;points=[];" vertex="1" connectable="0" parent="we8GS6kr-gi9_ZppwQF3-73">
          <mxGeometry x="0.0413" y="-1" relative="1" as="geometry">
            <mxPoint y="-11" as="offset" />
          </mxGeometry>
        </mxCell>
        <mxCell id="we8GS6kr-gi9_ZppwQF3-69" value="是否检查了&lt;div&gt;所有表项？&lt;/div&gt;" style="rhombus;whiteSpace=wrap;html=1;fillColor=#ffe6cc;strokeColor=#d79b00;" vertex="1" parent="1">
          <mxGeometry x="325" y="670" width="130" height="60" as="geometry" />
        </mxCell>
        <mxCell id="we8GS6kr-gi9_ZppwQF3-72" value="非法访问&lt;div&gt;（未命中）&lt;/div&gt;" style="rounded=1;whiteSpace=wrap;html=1;fillColor=#f8cecc;strokeColor=#b85450;" vertex="1" parent="1">
          <mxGeometry x="510" y="680" width="120" height="40" as="geometry" />
        </mxCell>
        <mxCell id="we8GS6kr-gi9_ZppwQF3-78" style="edgeStyle=orthogonalEdgeStyle;rounded=0;orthogonalLoop=1;jettySize=auto;html=1;entryX=0.5;entryY=0;entryDx=0;entryDy=0;" edge="1" parent="1" source="we8GS6kr-gi9_ZppwQF3-75" target="we8GS6kr-gi9_ZppwQF3-54">
          <mxGeometry relative="1" as="geometry" />
        </mxCell>
        <mxCell id="we8GS6kr-gi9_ZppwQF3-79" value="是" style="edgeLabel;html=1;align=center;verticalAlign=middle;resizable=0;points=[];" vertex="1" connectable="0" parent="we8GS6kr-gi9_ZppwQF3-78">
          <mxGeometry x="0.1673" y="1" relative="1" as="geometry">
            <mxPoint x="-9" as="offset" />
          </mxGeometry>
        </mxCell>
        <mxCell id="we8GS6kr-gi9_ZppwQF3-80" style="edgeStyle=orthogonalEdgeStyle;rounded=0;orthogonalLoop=1;jettySize=auto;html=1;entryX=0.5;entryY=0;entryDx=0;entryDy=0;" edge="1" parent="1" source="we8GS6kr-gi9_ZppwQF3-75" target="we8GS6kr-gi9_ZppwQF3-56">
          <mxGeometry relative="1" as="geometry" />
        </mxCell>
        <mxCell id="we8GS6kr-gi9_ZppwQF3-75" value="是否匹配&lt;div&gt;所有字节？&lt;/div&gt;" style="rhombus;whiteSpace=wrap;html=1;fillColor=#ffe6cc;strokeColor=#d79b00;" vertex="1" parent="1">
          <mxGeometry x="510" y="360" width="120" height="50" as="geometry" />
        </mxCell>
      </root>
    </mxGraphModel>
  </diagram>
</mxfile>
